<?xml version="1.0" encoding="utf-8"?>
<!-- Generator: Adobe Illustrator 24.1.1, SVG Export Plug-In . SVG Version: 6.00 Build 0)  -->
<svg version="1.1" id="Layer_1" xmlns="http://www.w3.org/2000/svg" xmlns:xlink="http://www.w3.org/1999/xlink" x="0px" y="0px"
	 viewBox="0 0 512 512" style="enable-background:new 0 0 512 512;" xml:space="preserve">
<style type="text/css">
	.st0{fill:#333333;}
</style>
<g id="XMLID_1_">
	<path id="XMLID_6_" class="st0" d="M255.6,0C158.7,0,80,70.1,80,159.9c0,29.1,17.3,71.7,32.3,96.1c42.5,71.7,56.7,89,63.8,128.4
		v32.3H336v-32.3c7.1-39.4,21.3-55.9,63.8-128.4c14.2-23.6,32.3-67,32.3-96.1C431.3,70.1,352.5,0,255.6,0z M372.2,239.5
		c-7.9,14.2-15,26-21.3,35.4c-27.6,44.9-40.2,66.2-46.5,103.2l-0.8,5.5h-96.1l-0.8-5.5c-6.3-37.8-18.9-58.3-46.5-103.2
		c-6.3-10.2-13.4-21.3-21.3-35.4c-13.4-22.1-27.6-58.3-27.6-79.6c0-70.1,64.6-128.4,144.1-128.4c39.4,0,75.6,13.4,103.2,37.8
		c26.8,23.6,41,55.9,41,89.8C399.8,181.2,385.6,216.6,372.2,239.5z M175.3,448.2h159.9c-7.1,36.2-41.7,63.8-80.3,63.8
		S183.1,484.4,175.3,448.2z"/>
</g>
</svg>
